<?xml version="1.0" standalone="no"?>
<!DOCTYPE svg PUBLIC "-//W3C//DTD SVG 20010904//EN"
 "http://www.w3.org/TR/2001/REC-SVG-20010904/DTD/svg10.dtd">
<svg version="1.0" xmlns="http://www.w3.org/2000/svg"
 width="400.000000pt" height="400.000000pt" viewBox="0 0 400.000000 400.000000"
 preserveAspectRatio="xMidYMid meet">

<g transform="translate(0.000000,400.000000) scale(0.100000,-0.100000)"
fill="#000000" stroke="none">
<path d="M1255 3351 c-94 -43 -115 -95 -115 -279 0 -94 -5 -152 -14 -179 -10
-28 -11 -45 -4 -58 7 -12 8 -74 4 -177 l-8 -158 61 -63 61 -62 0 411 c0 497
-9 464 128 464 96 0 106 -4 117 -40 15 -50 13 -50 260 -50 250 0 244 -1 262
55 l10 30 96 3 c154 4 137 124 137 -967 0 -901 -1 -929 -19 -952 l-19 -24
-464 2 -463 2 -22 26 c-20 23 -23 37 -23 111 0 82 -1 84 -24 84 -14 0 -38 11
-54 25 -52 43 -54 38 -51 -102 4 -146 18 -185 83 -237 l38 -31 491 4 c525 4
532 4 585 54 56 52 53 10 62 956 5 482 9 886 10 898 0 21 1 22 38 9 108 -38
252 -125 357 -214 49 -42 61 -48 76 -39 16 10 25 4 66 -42 217 -243 341 -549
344 -850 1 -53 5 -107 9 -121 15 -48 11 251 -5 343 -65 371 -334 735 -665 902
-41 21 -109 50 -150 65 -54 20 -78 34 -85 51 -43 100 -80 138 -154 159 -22 6
-211 10 -476 10 -406 0 -443 -2 -480 -19z"/>
<path d="M1471 2672 c-7 -14 -7 -24 2 -36 11 -14 30 -16 142 -14 l130 3 0 30
0 30 -132 3 c-121 2 -133 1 -142 -16z"/>
<path d="M1471 2173 c-6 -12 -6 -25 0 -36 9 -15 27 -17 132 -17 67 0 128 4
135 9 8 4 12 19 10 32 -3 24 -4 24 -135 27 -119 2 -133 1 -142 -15z"/>
<path d="M1210 2105 c13 -14 25 -25 27 -25 2 0 3 11 3 25 0 20 -5 25 -27 25
l-26 0 23 -25z"/>
<path d="M1210 1805 c13 -14 25 -25 27 -25 2 0 3 11 3 25 0 20 -5 25 -27 25
l-26 0 23 -25z"/>
<path d="M1471 1676 c-9 -11 -10 -20 -1 -36 10 -19 18 -20 137 -18 103 2 128
6 136 19 6 9 7 24 4 33 -5 14 -25 16 -135 16 -100 0 -132 -3 -141 -14z"/>
<path d="M3080 1328 c-18 -35 -48 -84 -66 -111 -19 -26 -34 -52 -34 -57 0 -19
20 -10 37 18 10 15 23 30 30 35 15 10 103 150 103 165 0 7 -8 12 -19 12 -12 0
-29 -20 -51 -62z"/>
<path d="M2950 1130 c-9 -16 -8 -18 5 -14 8 4 15 12 15 20 0 20 -7 17 -20 -6z"/>
</g>
</svg>
